<?xml version="1.0" encoding="UTF-8" standalone="no"?>
<!-- Created with Inkscape (http://www.inkscape.org/) -->

<svg
   version="1.1"
   id="svg1"
   width="32"
   height="32"
   viewBox="0 0 32 32"
   xml:space="preserve"
   xmlns="http://www.w3.org/2000/svg"
   xmlns:svg="http://www.w3.org/2000/svg"><defs
     id="defs1" /><path
     style="display:inline;opacity:1;fill:#3b3b3b;fill-opacity:1;stroke:#484848;stroke-width:1.86719;stroke-dasharray:none;stroke-opacity:1"
     d="m 26.575195,10.637642 2.46468,3.725678 0.229273,8.196494 L 5.8833491,22.330541 4.7943046,5.4216915 l 1.719544,-2.2927253 2.5219979,2.0061347 5.1013145,1.7768622 3.840314,3.7256789 1.948818,6.190359 2.865906,-0.286592 0.401227,-4.184224 z"
     id="path56" /><path
     style="display:inline;opacity:1;fill:#6d6d6d;fill-opacity:1;stroke:#5b5b5b;stroke-width:1.86719;stroke-dasharray:none;stroke-opacity:1"
     d="M 1.3552165,29.266035 H 30.644784 v -7.795266 l -5.731815,-5.731813 -5.621354,-2.828581 -2.577228,2.703948 -2.949794,-2.962706 0.200613,-5.5103814 H 5.340694 L 3.0174424,7.9923668 v 2.0766962 7.733345 l -1.6622259,2.235407 z"
     id="path55" /><rect
     style="opacity:1;fill:#3b3b3b;fill-opacity:1;stroke:#484848;stroke-width:0.950105;stroke-dasharray:none;stroke-opacity:1"
     id="rect56"
     width="2.7357805"
     height="4.4988332"
     x="22.930733"
     y="19.654421" /><rect
     style="opacity:1;fill:#3b3b3b;fill-opacity:1;stroke:#484848;stroke-width:0.950105;stroke-dasharray:none;stroke-opacity:1"
     id="rect57"
     width="2.7357805"
     height="4.4988332"
     x="6.3726263"
     y="19.654421" /><rect
     style="opacity:1;fill:#3b3b3b;fill-opacity:1;stroke:#484848;stroke-width:0.950105;stroke-dasharray:none;stroke-opacity:1"
     id="rect58"
     width="4.7920675"
     height="7.1426325"
     x="13.537556"
     y="22.581949" /><path
     style="display:inline;opacity:1;fill:#3b3b3b;fill-opacity:1;stroke:#594121;stroke-width:2.05061;stroke-dasharray:none;stroke-opacity:1"
     d="m 15.111569,14.446307 h 7.232468"
     id="path58" /><path
     style="opacity:1;fill:#3b3b3b;fill-opacity:1;stroke:#484848;stroke-width:1.13353;stroke-dasharray:none;stroke-opacity:1"
     d="M 13.062504,13.425412 10.604959,14.36724 9.23646,16.455433"
     id="path59" /><path
     style="opacity:1;fill:#3b3b3b;fill-opacity:1;stroke:#484848;stroke-width:1.13353;stroke-dasharray:none;stroke-opacity:1"
     d="m 16.157682,15.88082 -2.027658,1.715622 -2.514861,2.718692"
     id="path60" /><path
     style="opacity:1;fill:#3b3b3b;fill-opacity:1;stroke:#484848;stroke-width:1.13353;stroke-dasharray:none;stroke-opacity:1"
     d="m 21.946814,15.135684 -0.938615,2.690032 -3.973221,2.718691"
     id="path61" /></svg>
